<?xml version="1.0" standalone="no"?>
<!DOCTYPE svg PUBLIC "-//W3C//DTD SVG 20010904//EN"
 "http://www.w3.org/TR/2001/REC-SVG-20010904/DTD/svg10.dtd">
<svg version="1.0" class="shop-cart" xmlns="http://www.w3.org/2000/svg"
 width="79.000000pt" height="76.000000pt" viewBox="0 0 79.000000 76.000000"
 preserveAspectRatio="xMidYMid meet">
<metadata>
Created by potrace 1.10, written by Peter Selinger 2001-2011
</metadata>
<g transform="translate(0.000000,76.000000) scale(0.100000,-0.100000)"
fill="#FF00000" stroke="#000000">
<path d="M10 745 c-23 -28 -4 -45 49 -45 l50 0 25 -82 c99 -328 98 -327 87
-358 -13 -39 3 -78 37 -87 33 -8 445 16 456 27 4 4 5 13 2 19 -9 13 -189 14
-331 1 -81 -7 -103 -6 -114 5 -13 12 -11 15 10 23 13 5 114 19 224 32 110 12
205 28 211 34 6 6 23 77 39 159 22 118 25 150 15 162 -10 13 -58 15 -296 15
l-283 0 -12 43 c-6 23 -16 48 -21 55 -12 14 -48 16 -48 2 0 -5 -13 -10 -30
-10 -16 0 -30 5 -30 10 0 15 -26 12 -40 -5z m360 -216 l0 -49 -63 0 -63 0 -16
49 c-9 28 -14 51 -13 53 2 2 37 2 79 0 l76 -4 0 -49z m170 1 l0 -50 -70 0 -70
0 0 50 0 50 70 0 70 0 0 -50z m166 33 c-2 -10 -7 -33 -11 -50 -7 -33 -7 -33
-66 -33 l-59 0 0 50 0 50 71 0 c62 0 70 -2 65 -17z m-336 -178 l0 -65 -40 0
-39 0 -17 58 c-9 31 -18 60 -21 65 -2 4 23 7 56 7 l61 0 0 -65z m170 10 l0
-55 -32 0 c-18 0 -50 -3 -70 -6 l-38 -7 0 62 0 61 70 0 70 0 0 -55z m135 13
c-4 -24 -8 -44 -9 -45 0 0 -22 -4 -48 -8 l-48 -7 0 51 0 51 56 0 56 0 -7 -42z"/>
<path d="M232 128 c-46 -23 -37 -101 13 -114 76 -19 120 83 49 114 -29 14 -32
14 -62 0z"/>
<path d="M596 119 c-31 -25 -34 -61 -6 -89 39 -39 110 -11 110 42 0 29 -9 42
-37 57 -30 15 -36 14 -67 -10z"/>
</g>
</svg>
