<?xml version="1.0" standalone="no"?>
<!DOCTYPE svg PUBLIC "-//W3C//DTD SVG 20010904//EN"
 "http://www.w3.org/TR/2001/REC-SVG-20010904/DTD/svg10.dtd">
<svg version="1.0" xmlns="http://www.w3.org/2000/svg"
 width="172.000000pt" height="180.000000pt" viewBox="0 0 172.000000 180.000000"
 preserveAspectRatio="xMidYMid meet">
<metadata>
Created by potrace 1.10, written by Peter Selinger 2001-2011
</metadata>
<g transform="translate(0.000000,180.000000) scale(0.100000,-0.100000)"
fill="#000000" stroke="none">
<path d="M472 1368 c-189 -189 -357 -361 -373 -382 -37 -49 -37 -87 -2 -126
25 -27 36 -32 98 -37 l70 -6 0 -311 c0 -342 1 -347 60 -372 40 -16 269 -20
309 -4 l26 10 0 255 c0 271 4 301 49 325 26 13 250 13 289 -1 60 -21 62 -32
62 -316 0 -142 4 -264 9 -272 7 -10 40 -12 159 -10 134 4 154 6 179 25 52 38
53 46 53 370 l0 302 31 6 c17 3 45 6 61 6 69 0 119 60 97 117 -5 14 -52 69
-103 122 l-94 97 5 85 c3 47 2 135 -2 194 -7 101 -9 111 -35 137 -27 26 -34
28 -114 28 -77 0 -87 -2 -109 -24 -24 -24 -43 -88 -32 -105 3 -6 1 -12 -4 -15
-5 -3 -41 29 -82 72 -40 42 -97 98 -127 125 -45 40 -59 47 -95 47 -41 0 -44
-3 -385 -342z"/>
</g>
</svg>
