<?xml version="1.0" encoding="UTF-8"?>
<!DOCTYPE svg PUBLIC "-//W3C//DTD SVG 1.1//EN" "http://www.w3.org/Graphics/SVG/1.1/DTD/svg11.dtd">
<svg xmlns="http://www.w3.org/2000/svg" version="1.1" width="171px" height="147px" style="shape-rendering:geometricPrecision; text-rendering:geometricPrecision; image-rendering:optimizeQuality; fill-rule:evenodd; clip-rule:evenodd" xmlns:xlink="http://www.w3.org/1999/xlink">
<g><path style="opacity:0.175" fill="#cacaca" d="M 77.5,6.5 C 79.9779,5.83588 82.6445,5.50255 85.5,5.5C 89.7773,5.33666 93.7773,6.00333 97.5,7.5C 90.8627,6.7243 84.1961,6.39097 77.5,6.5 Z"/></g>
<g><path style="opacity:1" fill="#090909" d="M 77.5,6.5 C 84.1961,6.39097 90.8627,6.7243 97.5,7.5C 109.652,9.40865 119.985,14.742 128.5,23.5C 128.427,25.0269 129.094,26.0269 130.5,26.5C 136.877,32.5824 141.211,39.9157 143.5,48.5C 143.41,51.1522 144.076,53.4855 145.5,55.5C 146.656,63.3225 146.823,71.3225 146,79.5C 145.054,85.1713 143.221,90.5047 140.5,95.5C 139.662,95.8417 139.328,96.5084 139.5,97.5C 136.657,102.519 133.324,107.186 129.5,111.5C 127.973,111.427 126.973,112.094 126.5,113.5C 107.79,130.008 86.4566,134.175 62.5,126C 32.1375,111.855 19.4708,88.3553 24.5,55.5C 25.9238,53.4855 26.5905,51.1522 26.5,48.5C 32.4838,29.0143 45.1504,15.8476 64.5,9C 68.7536,7.68589 73.087,6.85256 77.5,6.5 Z M 100.5,39.5 C 104.459,39.0713 107.959,40.0713 111,42.5C 111.461,47.1841 111.295,51.8507 110.5,56.5C 109.076,58.5145 108.41,60.8478 108.5,63.5C 106.723,66.5046 105.723,69.8379 105.5,73.5C 104.262,75.2143 103.595,77.2143 103.5,79.5C 102.596,80.209 102.263,81.209 102.5,82.5C 104.415,82.7845 106.081,82.4511 107.5,81.5C 110.279,81.7214 112.946,81.388 115.5,80.5C 116.873,80.3433 118.207,80.51 119.5,81C 116.996,81.6976 114.663,82.5309 112.5,83.5C 108.821,83.3626 105.321,84.0293 102,85.5C 100.791,85.3474 99.6246,85.0141 98.5,84.5C 96.7538,83.7505 95.7538,82.4172 95.5,80.5C 98.5805,70.261 101.247,59.9277 103.5,49.5C 104.216,47.4437 104.883,45.277 105.5,43C 104.906,42.5357 104.239,42.369 103.5,42.5C 103.5,42.1667 103.5,41.8333 103.5,41.5C 102.5,40.8333 101.5,40.1667 100.5,39.5 Z M 96.5,41.5 C 96.9725,43.9705 96.1392,46.3038 94,48.5C 94.2204,46.0369 95.0538,43.7035 96.5,41.5 Z M 63.5,49.5 C 64.4916,49.3284 65.1583,49.6618 65.5,50.5C 64.2616,52.2143 63.595,54.2143 63.5,56.5C 62.0762,58.5145 61.4095,60.8478 61.5,63.5C 60.4891,65.4024 60.3224,67.4024 61,69.5C 63.6641,73.6569 66.4975,77.6569 69.5,81.5C 70.7007,83.9095 72.3674,85.9095 74.5,87.5C 74.4257,89.4109 73.4257,90.5776 71.5,91C 69.5273,91.4955 67.5273,91.6621 65.5,91.5C 65.5,90.1667 64.8333,89.5 63.5,89.5C 62.9744,87.7697 61.9744,86.4363 60.5,85.5C 60.5852,84.0047 59.9185,83.0047 58.5,82.5C 56.8287,84.5098 56.162,86.8431 56.5,89.5C 55.6314,91.717 55.298,94.0504 55.5,96.5C 54.5318,94.3926 54.1984,92.0593 54.5,89.5C 54.5,89.1667 54.5,88.8333 54.5,88.5C 55.6453,84.6888 55.8119,80.6888 55,76.5C 54.6174,75.944 54.1174,75.6107 53.5,75.5C 52.5667,72.6298 50.9,70.2964 48.5,68.5C 48.573,66.9731 47.9063,65.9731 46.5,65.5C 43.1378,63.2221 42.8044,60.3888 45.5,57C 46.7659,56.6905 47.9326,56.1905 49,55.5C 51.0498,56.0664 52.5498,57.733 53.5,60.5C 54.8333,61.1667 55.8333,62.1667 56.5,63.5C 57.209,64.404 58.209,64.7373 59.5,64.5C 59.5,63.5 59.5,62.5 59.5,61.5C 60.8325,57.5051 62.1658,53.5051 63.5,49.5 Z"/></g>
<g><path style="opacity:0.776" fill="#868686" d="M 128.5,23.5 C 129.906,23.9731 130.573,24.9731 130.5,26.5C 129.094,26.0269 128.427,25.0269 128.5,23.5 Z"/></g>
<g><path style="opacity:0.545" fill="#999999" d="M 98.5,40.5 C 98.8417,39.6618 99.5084,39.3284 100.5,39.5C 101.5,40.1667 102.5,40.8333 103.5,41.5C 102.167,41.5 100.833,41.5 99.5,41.5C 99.5,40.8333 99.1667,40.5 98.5,40.5 Z"/></g>
<g><path style="opacity:0.412" fill="#a7a7a7" d="M 103.5,42.5 C 104.239,42.369 104.906,42.5357 105.5,43C 104.883,45.277 104.216,47.4437 103.5,49.5C 103.5,47.1667 103.5,44.8333 103.5,42.5 Z"/></g>
<g><path style="opacity:0.545" fill="#868686" d="M 65.5,50.5 C 65.1583,49.6618 64.4916,49.3284 63.5,49.5C 63.811,48.5222 64.4777,47.8555 65.5,47.5C 66.7759,48.6136 66.7759,49.6136 65.5,50.5 Z"/></g>
<g><path style="opacity:0.788" fill="#595959" d="M 26.5,48.5 C 26.5905,51.1522 25.9238,53.4855 24.5,55.5C 24.4095,52.8478 25.0762,50.5145 26.5,48.5 Z"/></g>
<g><path style="opacity:0.749" fill="#616161" d="M 143.5,48.5 C 144.924,50.5145 145.59,52.8478 145.5,55.5C 144.076,53.4855 143.41,51.1522 143.5,48.5 Z"/></g>
<g><path style="opacity:0.973" fill="#636363" d="M 110.5,56.5 C 110.59,59.1522 109.924,61.4855 108.5,63.5C 108.41,60.8478 109.076,58.5145 110.5,56.5 Z"/></g>
<g><path style="opacity:0.671" fill="#757575" d="M 63.5,56.5 C 63.5905,59.1522 62.9238,61.4855 61.5,63.5C 61.4095,60.8478 62.0762,58.5145 63.5,56.5 Z"/></g>
<g><path style="opacity:0.706" fill="#919191" d="M 59.5,61.5 C 59.5,62.5 59.5,63.5 59.5,64.5C 58.209,64.7373 57.209,64.404 56.5,63.5C 57.7777,63.2178 58.7777,62.5511 59.5,61.5 Z"/></g>
<g><path style="opacity:0.733" fill="#878787" d="M 46.5,65.5 C 47.9063,65.9731 48.573,66.9731 48.5,68.5C 47.0937,68.0269 46.427,67.0269 46.5,65.5 Z"/></g>
<g><path style="opacity:0.969" fill="#6c6c6c" d="M 108.5,63.5 C 108.277,67.1621 107.277,70.4954 105.5,73.5C 105.723,69.8379 106.723,66.5046 108.5,63.5 Z"/></g>
<g><path style="opacity:0.298" fill="#c2c2c2" d="M 103.5,79.5 C 104.183,81.1765 105.517,81.8432 107.5,81.5C 106.081,82.4511 104.415,82.7845 102.5,82.5C 102.263,81.209 102.596,80.209 103.5,79.5 Z"/></g>
<g><path style="opacity:0.576" fill="#7d7d7d" d="M 53.5,75.5 C 54.1174,75.6107 54.6174,75.944 55,76.5C 55.8119,80.6888 55.6453,84.6888 54.5,88.5C 54.7059,84.1018 54.3726,79.7685 53.5,75.5 Z"/></g>
<g><path style="opacity:0.998" fill="#4e4e4e" d="M 69.5,81.5 C 71.4233,81.795 73.0899,82.6283 74.5,84C 74.7986,85.073 74.7986,86.2397 74.5,87.5C 72.3674,85.9095 70.7007,83.9095 69.5,81.5 Z"/></g>
<g><path style="opacity:1" fill="#404040" d="M 115.5,80.5 C 116.946,79.3871 118.613,79.2204 120.5,80C 121.833,80.6667 121.833,81.3333 120.5,82C 121.167,82.3333 121.833,82.6667 122.5,83C 119.26,82.7349 115.927,82.9016 112.5,83.5C 114.663,82.5309 116.996,81.6976 119.5,81C 118.207,80.51 116.873,80.3433 115.5,80.5 Z"/></g>
<g><path style="opacity:0.894" fill="#636363" d="M 60.5,85.5 C 59.8826,85.3893 59.3826,85.056 59,84.5C 58.2432,86.3146 57.4098,87.9812 56.5,89.5C 56.162,86.8431 56.8287,84.5098 58.5,82.5C 59.9185,83.0047 60.5852,84.0047 60.5,85.5 Z"/></g>
<g><path style="opacity:0.031" fill="#c6c6c6" d="M 63.5,89.5 C 64.8333,89.5 65.5,90.1667 65.5,91.5C 64.5,91.1667 63.8333,90.5 63.5,89.5 Z"/></g>
<g><path style="opacity:0.02" fill="#e8e8e8" d="M 140.5,95.5 C 141.439,96.3274 141.105,96.9941 139.5,97.5C 139.328,96.5084 139.662,95.8417 140.5,95.5 Z"/></g>
<g><path style="opacity:0.161" fill="#8f8f8f" d="M 54.5,89.5 C 54.1984,92.0593 54.5318,94.3926 55.5,96.5C 55.6309,97.3764 55.2975,98.0431 54.5,98.5C 53.1968,95.3553 53.1968,92.3553 54.5,89.5 Z"/></g>
<g><path style="opacity:0.008" fill="#d5d5d5" d="M 129.5,111.5 C 129.027,112.906 128.027,113.573 126.5,113.5C 126.973,112.094 127.973,111.427 129.5,111.5 Z"/></g>
</svg>
